<mxfile host="app.diagrams.net" modified="2021-01-23T10:58:35.195Z" agent="5.0 (Windows NT 10.0; Win64; x64) AppleWebKit/537.36 (KHTML, like Gecko) Chrome/87.0.4280.141 Safari/537.36" etag="xDWeUKrYfWz-Pfa8FozR" version="14.2.7" type="github">
  <diagram id="j8PcKBThPSrf0KerD6Kp" name="Page-1">
    <mxGraphModel dx="1422" dy="794" grid="1" gridSize="10" guides="1" tooltips="1" connect="1" arrows="1" fold="1" page="1" pageScale="1" pageWidth="827" pageHeight="1169" math="0" shadow="0">
      <root>
        <mxCell id="0" />
        <mxCell id="1" parent="0" />
        <mxCell id="jrZg3aIcVNPkxSmpp7Bp-14" value="" style="group" parent="1" vertex="1" connectable="0">
          <mxGeometry x="20" y="100" width="150" height="540" as="geometry" />
        </mxCell>
        <mxCell id="jrZg3aIcVNPkxSmpp7Bp-1" value="" style="rounded=1;whiteSpace=wrap;html=1;" parent="jrZg3aIcVNPkxSmpp7Bp-14" vertex="1">
          <mxGeometry width="150" height="540" as="geometry" />
        </mxCell>
        <mxCell id="jrZg3aIcVNPkxSmpp7Bp-2" value="Interface standardization" style="rounded=0;whiteSpace=wrap;html=1;" parent="jrZg3aIcVNPkxSmpp7Bp-14" vertex="1">
          <mxGeometry x="15" y="40" width="120" height="60" as="geometry" />
        </mxCell>
        <mxCell id="jrZg3aIcVNPkxSmpp7Bp-3" value="Functional integration" style="rounded=0;whiteSpace=wrap;html=1;" parent="jrZg3aIcVNPkxSmpp7Bp-14" vertex="1">
          <mxGeometry x="15" y="130" width="120" height="60" as="geometry" />
        </mxCell>
        <mxCell id="jrZg3aIcVNPkxSmpp7Bp-4" value="Operational automation" style="rounded=0;whiteSpace=wrap;html=1;" parent="jrZg3aIcVNPkxSmpp7Bp-14" vertex="1">
          <mxGeometry x="15" y="230" width="120" height="60" as="geometry" />
        </mxCell>
        <mxCell id="jrZg3aIcVNPkxSmpp7Bp-5" value="Communication bus" style="rounded=0;whiteSpace=wrap;html=1;" parent="jrZg3aIcVNPkxSmpp7Bp-14" vertex="1">
          <mxGeometry x="15" y="330" width="120" height="60" as="geometry" />
        </mxCell>
        <mxCell id="jrZg3aIcVNPkxSmpp7Bp-7" value="Intelligent work" style="rounded=0;whiteSpace=wrap;html=1;" parent="jrZg3aIcVNPkxSmpp7Bp-14" vertex="1">
          <mxGeometry x="15" y="440" width="120" height="60" as="geometry" />
        </mxCell>
        <mxCell id="jrZg3aIcVNPkxSmpp7Bp-22" value="" style="group" parent="1" vertex="1" connectable="0">
          <mxGeometry x="220" y="100" width="420" height="540" as="geometry" />
        </mxCell>
        <mxCell id="jrZg3aIcVNPkxSmpp7Bp-15" value="" style="rounded=1;whiteSpace=wrap;html=1;" parent="jrZg3aIcVNPkxSmpp7Bp-22" vertex="1">
          <mxGeometry width="420" height="540" as="geometry" />
        </mxCell>
        <mxCell id="jrZg3aIcVNPkxSmpp7Bp-16" value="Intelligent control system" style="rounded=0;whiteSpace=wrap;html=1;" parent="jrZg3aIcVNPkxSmpp7Bp-22" vertex="1">
          <mxGeometry x="50" y="30" width="320" height="30" as="geometry" />
        </mxCell>
        <mxCell id="jrZg3aIcVNPkxSmpp7Bp-17" value="Automated operation control" style="rounded=0;whiteSpace=wrap;html=1;" parent="jrZg3aIcVNPkxSmpp7Bp-22" vertex="1">
          <mxGeometry x="50" y="150" width="120" height="60" as="geometry" />
        </mxCell>
        <mxCell id="jrZg3aIcVNPkxSmpp7Bp-18" value="Fault diagnosis module" style="rounded=0;whiteSpace=wrap;html=1;" parent="jrZg3aIcVNPkxSmpp7Bp-22" vertex="1">
          <mxGeometry x="250" y="150" width="120" height="60" as="geometry" />
        </mxCell>
        <mxCell id="jrZg3aIcVNPkxSmpp7Bp-19" value="Module Beidou high&amp;nbsp; precision positioning module" style="rounded=0;whiteSpace=wrap;html=1;" parent="jrZg3aIcVNPkxSmpp7Bp-22" vertex="1">
          <mxGeometry x="50" y="310" width="120" height="60" as="geometry" />
        </mxCell>
        <mxCell id="jrZg3aIcVNPkxSmpp7Bp-20" value="Wireless communication module" style="rounded=0;whiteSpace=wrap;html=1;" parent="jrZg3aIcVNPkxSmpp7Bp-22" vertex="1">
          <mxGeometry x="250" y="310" width="120" height="60" as="geometry" />
        </mxCell>
        <mxCell id="jrZg3aIcVNPkxSmpp7Bp-21" value="Agricultural machinery special standardized interface module" style="rounded=0;whiteSpace=wrap;html=1;" parent="jrZg3aIcVNPkxSmpp7Bp-22" vertex="1">
          <mxGeometry x="50" y="470" width="320" height="40" as="geometry" />
        </mxCell>
        <mxCell id="jrZg3aIcVNPkxSmpp7Bp-39" value="" style="shape=flexArrow;endArrow=classic;startArrow=classic;html=1;" parent="jrZg3aIcVNPkxSmpp7Bp-22" edge="1">
          <mxGeometry width="50" height="50" relative="1" as="geometry">
            <mxPoint x="109.5" y="70" as="sourcePoint" />
            <mxPoint x="109.5" y="140" as="targetPoint" />
          </mxGeometry>
        </mxCell>
        <mxCell id="jrZg3aIcVNPkxSmpp7Bp-40" value="" style="shape=flexArrow;endArrow=classic;startArrow=classic;html=1;" parent="jrZg3aIcVNPkxSmpp7Bp-22" edge="1">
          <mxGeometry width="50" height="50" relative="1" as="geometry">
            <mxPoint x="309.5" y="70" as="sourcePoint" />
            <mxPoint x="309.5" y="140" as="targetPoint" />
          </mxGeometry>
        </mxCell>
        <mxCell id="jrZg3aIcVNPkxSmpp7Bp-41" value="" style="shape=flexArrow;endArrow=classic;startArrow=classic;html=1;" parent="jrZg3aIcVNPkxSmpp7Bp-22" edge="1">
          <mxGeometry width="50" height="50" relative="1" as="geometry">
            <mxPoint x="109.5" y="230" as="sourcePoint" />
            <mxPoint x="109.5" y="300" as="targetPoint" />
          </mxGeometry>
        </mxCell>
        <mxCell id="jrZg3aIcVNPkxSmpp7Bp-42" value="" style="shape=flexArrow;endArrow=classic;startArrow=classic;html=1;" parent="jrZg3aIcVNPkxSmpp7Bp-22" edge="1">
          <mxGeometry width="50" height="50" relative="1" as="geometry">
            <mxPoint x="309.5" y="230" as="sourcePoint" />
            <mxPoint x="309.5" y="300" as="targetPoint" />
          </mxGeometry>
        </mxCell>
        <mxCell id="jrZg3aIcVNPkxSmpp7Bp-43" value="" style="shape=flexArrow;endArrow=classic;startArrow=classic;html=1;" parent="jrZg3aIcVNPkxSmpp7Bp-22" edge="1">
          <mxGeometry width="50" height="50" relative="1" as="geometry">
            <mxPoint x="109.5" y="390" as="sourcePoint" />
            <mxPoint x="109.5" y="460" as="targetPoint" />
          </mxGeometry>
        </mxCell>
        <mxCell id="jrZg3aIcVNPkxSmpp7Bp-44" value="" style="shape=flexArrow;endArrow=classic;startArrow=classic;html=1;" parent="jrZg3aIcVNPkxSmpp7Bp-22" edge="1">
          <mxGeometry width="50" height="50" relative="1" as="geometry">
            <mxPoint x="309.5" y="390" as="sourcePoint" />
            <mxPoint x="309.5" y="460" as="targetPoint" />
          </mxGeometry>
        </mxCell>
        <mxCell id="jrZg3aIcVNPkxSmpp7Bp-23" value="" style="rounded=1;whiteSpace=wrap;html=1;" parent="1" vertex="1">
          <mxGeometry x="690" y="100" width="120" height="540" as="geometry" />
        </mxCell>
        <mxCell id="jrZg3aIcVNPkxSmpp7Bp-24" value="Waterproof" style="rounded=0;whiteSpace=wrap;html=1;" parent="1" vertex="1">
          <mxGeometry x="710" y="150" width="80" height="60" as="geometry" />
        </mxCell>
        <mxCell id="jrZg3aIcVNPkxSmpp7Bp-26" value="Strong sunlight visible" style="rounded=0;whiteSpace=wrap;html=1;" parent="1" vertex="1">
          <mxGeometry x="710" y="240" width="80" height="60" as="geometry" />
        </mxCell>
        <mxCell id="jrZg3aIcVNPkxSmpp7Bp-27" value="Wide temperature" style="rounded=0;whiteSpace=wrap;html=1;" parent="1" vertex="1">
          <mxGeometry x="710" y="330" width="80" height="60" as="geometry" />
        </mxCell>
        <mxCell id="jrZg3aIcVNPkxSmpp7Bp-28" value="Anti-vibration shock" style="rounded=0;whiteSpace=wrap;html=1;" parent="1" vertex="1">
          <mxGeometry x="710" y="420" width="80" height="60" as="geometry" />
        </mxCell>
        <mxCell id="jrZg3aIcVNPkxSmpp7Bp-29" value="High Reliability" style="rounded=0;whiteSpace=wrap;html=1;" parent="1" vertex="1">
          <mxGeometry x="710" y="510" width="80" height="60" as="geometry" />
        </mxCell>
        <mxCell id="jrZg3aIcVNPkxSmpp7Bp-31" value="" style="endArrow=none;html=1;entryX=0;entryY=0.202;entryDx=0;entryDy=0;entryPerimeter=0;" parent="1" target="jrZg3aIcVNPkxSmpp7Bp-15" edge="1">
          <mxGeometry width="50" height="50" relative="1" as="geometry">
            <mxPoint x="170" y="210" as="sourcePoint" />
            <mxPoint x="220" y="160" as="targetPoint" />
          </mxGeometry>
        </mxCell>
        <mxCell id="jrZg3aIcVNPkxSmpp7Bp-32" value="" style="endArrow=none;html=1;entryX=0;entryY=0.202;entryDx=0;entryDy=0;entryPerimeter=0;" parent="1" edge="1">
          <mxGeometry width="50" height="50" relative="1" as="geometry">
            <mxPoint x="170" y="330.92" as="sourcePoint" />
            <mxPoint x="220" y="330.00000000000006" as="targetPoint" />
          </mxGeometry>
        </mxCell>
        <mxCell id="jrZg3aIcVNPkxSmpp7Bp-33" value="" style="endArrow=none;html=1;entryX=0;entryY=0.202;entryDx=0;entryDy=0;entryPerimeter=0;" parent="1" edge="1">
          <mxGeometry width="50" height="50" relative="1" as="geometry">
            <mxPoint x="170" y="440.91999999999996" as="sourcePoint" />
            <mxPoint x="220" y="440" as="targetPoint" />
          </mxGeometry>
        </mxCell>
        <mxCell id="jrZg3aIcVNPkxSmpp7Bp-34" value="" style="endArrow=none;html=1;entryX=0;entryY=0.202;entryDx=0;entryDy=0;entryPerimeter=0;" parent="1" edge="1">
          <mxGeometry width="50" height="50" relative="1" as="geometry">
            <mxPoint x="170" y="530.9200000000001" as="sourcePoint" />
            <mxPoint x="220" y="530" as="targetPoint" />
          </mxGeometry>
        </mxCell>
        <mxCell id="jrZg3aIcVNPkxSmpp7Bp-35" value="" style="endArrow=none;html=1;entryX=0;entryY=0.202;entryDx=0;entryDy=0;entryPerimeter=0;" parent="1" edge="1">
          <mxGeometry width="50" height="50" relative="1" as="geometry">
            <mxPoint x="640" y="210.92000000000002" as="sourcePoint" />
            <mxPoint x="690" y="210.00000000000006" as="targetPoint" />
          </mxGeometry>
        </mxCell>
        <mxCell id="jrZg3aIcVNPkxSmpp7Bp-36" value="" style="endArrow=none;html=1;entryX=0;entryY=0.202;entryDx=0;entryDy=0;entryPerimeter=0;" parent="1" edge="1">
          <mxGeometry width="50" height="50" relative="1" as="geometry">
            <mxPoint x="640" y="320.92" as="sourcePoint" />
            <mxPoint x="690" y="320.00000000000006" as="targetPoint" />
          </mxGeometry>
        </mxCell>
        <mxCell id="jrZg3aIcVNPkxSmpp7Bp-37" value="" style="endArrow=none;html=1;entryX=0;entryY=0.202;entryDx=0;entryDy=0;entryPerimeter=0;" parent="1" edge="1">
          <mxGeometry width="50" height="50" relative="1" as="geometry">
            <mxPoint x="640" y="440.91999999999996" as="sourcePoint" />
            <mxPoint x="690" y="440" as="targetPoint" />
          </mxGeometry>
        </mxCell>
        <mxCell id="jrZg3aIcVNPkxSmpp7Bp-38" value="" style="endArrow=none;html=1;entryX=0;entryY=0.202;entryDx=0;entryDy=0;entryPerimeter=0;" parent="1" edge="1">
          <mxGeometry width="50" height="50" relative="1" as="geometry">
            <mxPoint x="640" y="540.9200000000001" as="sourcePoint" />
            <mxPoint x="690" y="540" as="targetPoint" />
          </mxGeometry>
        </mxCell>
      </root>
    </mxGraphModel>
  </diagram>
</mxfile>
